<svg width="20" height="19" viewBox="0 0 20 19" fill="none" xmlns="http://www.w3.org/2000/svg">
<g id="fi-bs-user" clip-path="url(#clip0_168_497)">
<path id="Vector" d="M17.5 19.0007H15V15.0423C15 14.6224 14.8244 14.2197 14.5118 13.9227C14.1993 13.6258 13.7754 13.459 13.3333 13.459H6.66667C6.22464 13.459 5.80072 13.6258 5.48816 13.9227C5.17559 14.2197 5 14.6224 5 15.0423V19.0007H2.5V15.0423C2.50132 13.9929 2.94073 12.9868 3.72185 12.2447C4.50296 11.5027 5.562 11.0852 6.66667 11.084H13.3333C14.438 11.0852 15.497 11.5027 16.2782 12.2447C17.0593 12.9868 17.4987 13.9929 17.5 15.0423V19.0007Z" fill="#0349AE"/>
<path id="Vector_2" d="M10 9.5C9.0111 9.5 8.0444 9.22142 7.22215 8.69948C6.39991 8.17755 5.75904 7.4357 5.3806 6.56775C5.00217 5.6998 4.90315 4.74473 5.09608 3.82332C5.289 2.90191 5.76521 2.05554 6.46447 1.39124C7.16373 0.726945 8.05465 0.274552 9.02455 0.091272C9.99446 -0.0920077 10.9998 0.00205811 11.9134 0.361574C12.827 0.721091 13.6079 1.32991 14.1573 2.11104C14.7068 2.89218 15 3.81054 15 4.75C14.9987 6.00939 14.4715 7.21685 13.5341 8.10737C12.5967 8.9979 11.3257 9.49874 10 9.5ZM10 2.375C9.50555 2.375 9.0222 2.51429 8.61108 2.77526C8.19995 3.03623 7.87952 3.40715 7.6903 3.84113C7.50108 4.2751 7.45158 4.75264 7.54804 5.21334C7.6445 5.67405 7.8826 6.09723 8.23223 6.42938C8.58187 6.76153 9.02732 6.98773 9.51228 7.07937C9.99723 7.17101 10.4999 7.12397 10.9567 6.94422C11.4135 6.76446 11.804 6.46005 12.0787 6.06948C12.3534 5.67891 12.5 5.21973 12.5 4.75C12.5 4.12011 12.2366 3.51602 11.7678 3.07062C11.2989 2.62522 10.663 2.375 10 2.375Z" fill="#0349AE"/>
</g>
<defs>
<clipPath id="clip0_168_497">
<rect width="20" height="19" fill="white"/>
</clipPath>
</defs>
</svg>

